{"title":"Papillon.1973.BRRip.Xxid-AC3-SiC","uid":6596514,"size":1834989515,"categoryP":"video","categoryS":"movies","magnet":"?xt=urn:btih:19cb9670f9859b6cce4adeb9c9faf1895e9ef154&amp;dn=Papillon.1973.BRRip.Xxid-AC3-SiC&amp;tr=udp%3A%2F%2Ftracker.openbittorrent.com%3A80&amp;tr=udp%3A%2F%2Fopen.demonii.com%3A1337&amp;tr=udp%3A%2F%2Ftracker.coppersurfer.tk%3A6969&amp;tr=udp%3A%2F%2Fexodus.desync.com%3A6969","seeders":0,"leechers":1,"uploader":"TvTeam","files":5,"time":1313044727,"description":". \n  &lt;a href=&quot;\nhttp://www.torrenting.com/&quot; rel=&quot;nofollow&quot; target=&quot;_NEW&quot;&gt;\nhttp://www.torrenting.com/&lt;/a&gt;        :     Greatest Movie Tracker on The Net!!!\n &lt;a href=&quot;\nhttp://www.Torrenting.com&quot; rel=&quot;nofollow&quot; target=&quot;_NEW&quot;&gt;\nhttp://www.Torrenting.com&lt;/a&gt;          :     Once &amp; For all ;)\n\n\n               www . Torrenting . Com \n\n(((((((((((((= Enjoy No RAR releases =))))))))))))))))))))\n\n\n...................................NFO:....................................\n\n.\n\n\n\n\n\n\n\n\n\n\n\n\n\n\n\n\n\n\n\n\n\n\n\n\n\n\n\n\n\n\n\n\n\n\n\n\n\n\n\n\n          \n          \n              \n              \n                    \n                    \n                    \n                    \n\nPapillon.1973.BRRip.Xxid-AC3-SiC\n\nPoster:\n[img]http://leetleech.org/images/24231503723021644306.jpg[/img]\n\nIMDB Link:\nhttp://www.imdb.com/title/tt0070511/\n\nDescription:\nA man befriends a fellow criminal as the two of them begin serving their sentence\non a dreadful prison island, which inspires the man to plot his escape.\n\nMediaInfo:\nGeneral\nComplete name                    : Papillon.1973.BRRip.Xxid-AC3-SiC.avi\nFormat                           : AVI\nFormat/Info                      : Audio Video Interleave\nFile size                        : 1.69 GiB\nDuration                         : 2h 30mn\nOverall bit rate                 : 1 607 Kbps\n\nVideo\nID                               : 0\nFormat                           : MPEG-4 Visual\nFormat profile                   : Advanced Simple@L5\nFormat settings, BVOP            : Yes\nFormat settings, QPel            : No\nFormat settings, GMC             : No warppoints\nFormat settings, Matrix          : Default (H.263)\nMuxing mode                      : Packed bitstream\nCodec ID                         : XVID\nCodec ID/Hint                    : XviD\nDuration                         : 2h 30mn\nBit rate                         : 1 215 Kbps\nWidth                            : 720 pixels\nHeight                           : 304 pixels\nDisplay aspect ratio             : 2.35:1\nFrame rate                       : 23.976 fps\nResolution                       : 8 bits\nColorimetry                      : 4:2:0\nScan type                        : Progressive\nBits/(Pixel*Frame)               : 0.232\nStream size                      : 1.28 GiB (76%)\nWriting library                  : XviD 64\n\nAudio\nID                               : 1\nFormat                           : AC-3\nFormat/Info                      : Audio Coding 3\nFormat_Settings_ModeExtension    : CM (complete main)\nCodec ID                         : 2000\nDuration                         : 2h 30mn\nBit rate mode                    : Constant\nBit rate                         : 384 Kbps\nChannel(s)                       : 6 channels\nChannel positions                : Front: L C R, Side: L R, LFE\nSampling rate                    : 48.0 KHz\nStream size                      : 414 MiB (24%)\nAlignment                        : Aligned on interleaves\nInterleave, duration             : 64 ms (1.53 video frames)\nInterleave, preload duration     : 192 ms\nTitle                            : 6ch English\n\nScreenshots:\n[img]http://leetleech.org/images/97059802116081389884.png[/img]\n[img]http://leetleech.org/images/64417643514014754268.png[/img]\n[img]http://leetleech.org/images/61294711470184043964.png[/img]\n[img]http://leetleech.org/images/33987800934185795858.png[/img]\n[img]http://leetleech.org/images/79514652654960322393.png[/img]\n\nNote :   N/A \n\nSource : BluRay-HDMaNiAcS Thanks!\n\nEncoder: Bezauk\n\nEnjoy!\n\nRespects to CaptainHomey, Cyanide, CM8, Rx, THC, ELEKTRI4KA, \nKillerhz, PA, YeFsTe, BoxSlots, MrRep and everyone in the struggle...","torrent":{"xt":"urn:btih:19cb9670f9859b6cce4adeb9c9faf1895e9ef154","amp;dn":"Papillon.1973.BRRip.Xxid-AC3-SiC","amp;tr":["udp%3A%2F%2Ftracker.openbittorrent.com%3A80","udp%3A%2F%2Fopen.demonii.com%3A1337","udp%3A%2F%2Ftracker.coppersurfer.tk%3A6969","udp%3A%2F%2Fexodus.desync.com%3A6969"],"infoHash":"19cb9670f9859b6cce4adeb9c9faf1895e9ef154","infoHashBuffer":{"type":"Buffer","data":[25,203,150,112,249,133,155,108,206,74,222,185,201,250,241,137,94,158,241,84]},"announce":[],"urlList":[]}}